# xmcd
#
# Track frame offsets: 
#        150
#        13165
#        25471
#        36847
#        47534
#        61651
#        73155
#        86533
#        96481
#        111485
#        125532
#        141081
#        156503
#        167352
#        184489
#        199141
#        211300
#        224913
#        239650
#        250867
#
# Disc length: 3509 seconds
#
# Revision: 1
# Processed by: cddbd v1.5.2PL0 Copyright (c) Steve Scherf et al.
# Submitted via: ExactAudioCopy v0.99pb5
#
DISCID=370db314
DTITLE=Kenny Rogers - RealGold 40 Tracks\\CD1
DYEAR=2003
DGENRE=Country
TTITLE0=Ruby (Don't take your love to town)
TTITLE1=Ruben James
TTITLE2=Me And Bobby McGhee
TTITLE3=Homemade Lies
TTITLE4=It`s Raining In My mind
TTITLE5=Poem For A little Lady
TTITLE6=A Stranger In My Place
TTITLE7=Where Does Rosie goes
TTITLE8=Tell It All Brother
TTITLE9=Loser
TTITLE10=Tulsa Turnaround
TTITLE11=My Washington Woman
TTITLE12=Always Leaving, Always Gone
TTITLE13=Something`s Burning
TTITLE14=All God`s Lonely Children
TTITLE15=I Found A Reason
TTITLE16=I`m Gonna Sing You A Sad Song Suzy
TTITLE17=Church Without A Name
TTITLE18=If Wishes Were Horses
TTITLE19=Love Woman
EXTD=
EXTT0=
EXTT1=
EXTT2=
EXTT3=
EXTT4=
EXTT5=
EXTT6=
EXTT7=
EXTT8=
EXTT9=
EXTT10=
EXTT11=
EXTT12=
EXTT13=
EXTT14=
EXTT15=
EXTT16=
EXTT17=
EXTT18=
EXTT19=
PLAYORDER=
